<?xml version="1.0" encoding="UTF-8"?>
<svg xmlns="http://www.w3.org/2000/svg" id="Layer_1" data-name="Layer 1" viewBox="0 0 24 24">
  <path d="M18,17c0,.552-.447,1-1,1h-3c-.553,0-1-.448-1-1s.447-1,1-1h3c.553,0,1,.448,1,1Zm-1-4h-3c-.553,0-1,.448-1,1s.447,1,1,1h3c.553,0,1-.448,1-1s-.447-1-1-1Zm0-5h-3c-.553,0-1,.448-1,1s.447,1,1,1h3c.553,0,1-.448,1-1s-.447-1-1-1Zm-7,0h-1v-1c0-.552-.447-1-1-1s-1,.448-1,1v1h-1c-.553,0-1,.448-1,1s.447,1,1,1h1v1c0,.552,.447,1,1,1s1-.448,1-1v-1h1c.553,0,1-.448,1-1s-.447-1-1-1Zm.207,5.293c-.391-.391-1.023-.391-1.414,0l-.793,.793-.793-.793c-.391-.391-1.023-.391-1.414,0s-.391,1.023,0,1.414l.793,.793-.793,.793c-.391,.391-.391,1.023,0,1.414,.195,.195,.451,.293,.707,.293s.512-.098,.707-.293l.793-.793,.793,.793c.195,.195,.451,.293,.707,.293s.512-.098,.707-.293c.391-.391,.391-1.023,0-1.414l-.793-.793,.793-.793c.391-.391,.391-1.023,0-1.414Zm13.793-4.793v9c0,3.033-2.468,5.5-5.5,5.5H5.5c-3.032,0-5.5-2.467-5.5-5.5V6.5C0,3.467,2.468,1,5.5,1h2.528c.54,0,1.081,.128,1.564,.369l3.156,1.578c.068,.035,.146,.053,.223,.053h5.528c3.032,0,5.5,2.467,5.5,5.5Zm-3,0c0-1.378-1.121-2.5-2.5-2.5h-5.528c-.54,0-1.081-.128-1.564-.369l-3.156-1.578c-.068-.035-.146-.053-.223-.053h-2.528c-1.379,0-2.5,1.122-2.5,2.5v11c0,1.378,1.121,2.5,2.5,2.5h13c1.379,0,2.5-1.122,2.5-2.5V8.5Z"/>
</svg>
